<svg xmlns="http://www.w3.org/2000/svg" xmlns:xlink="http://www.w3.org/1999/xlink" width="47" zoomAndPan="magnify" viewBox="0 0 35.25 42" height="56" preserveAspectRatio="xMidYMid meet" version="1.0"><defs><clipPath id="17bae3adbd"><path d="M 0.0429688 0 L 34.472656 0 L 34.472656 41.023438 L 0.0429688 41.023438 Z M 0.0429688 0 " clip-rule="nonzero"/></clipPath><clipPath id="5fd0b1d766"><path d="M 7.027344 36.320312 L 27.132812 36.320312 L 27.132812 40.558594 L 7.027344 40.558594 Z M 7.027344 36.320312 " clip-rule="nonzero"/></clipPath><clipPath id="3abb8f3112"><path d="M 13.628906 32.023438 L 20.539062 32.023438 L 20.539062 35.589844 L 13.628906 35.589844 Z M 13.628906 32.023438 " clip-rule="nonzero"/></clipPath><clipPath id="f1b868834e"><path d="M 17.078125 32.023438 L 20.53125 35.589844 L 13.628906 35.589844 Z M 17.078125 32.023438 " clip-rule="nonzero"/></clipPath><clipPath id="23f483b419"><path d="M 7 26 L 14 26 L 14 36 L 7 36 Z M 7 26 " clip-rule="nonzero"/></clipPath><clipPath id="be27e1a3ab"><path d="M 14.203125 27.5625 L 10.164062 37.207031 L 7.019531 35.890625 L 11.058594 26.246094 Z M 14.203125 27.5625 " clip-rule="nonzero"/></clipPath><clipPath id="5e4254e9a4"><path d="M 13.640625 28.910156 L 10.734375 35.851562 L 7.023438 35.878906 L 11.058594 26.246094 Z M 13.640625 28.910156 " clip-rule="nonzero"/></clipPath><clipPath id="792027671b"><path d="M 13.9375 26.582031 L 20.210938 26.582031 L 20.210938 30.960938 L 13.9375 30.960938 Z M 13.9375 26.582031 " clip-rule="nonzero"/></clipPath><clipPath id="1c6fe236e9"><path d="M 17.078125 30.960938 L 13.945312 26.582031 L 20.210938 26.582031 Z M 17.078125 30.960938 " clip-rule="nonzero"/></clipPath><clipPath id="49d1d7a64c"><path d="M 13.59375 19.054688 L 20.566406 19.054688 L 20.566406 26.03125 L 13.59375 26.03125 Z M 13.59375 19.054688 " clip-rule="nonzero"/></clipPath><clipPath id="5e19657b42"><path d="M 17.078125 19.054688 L 20.566406 22.542969 L 17.078125 26.03125 L 13.59375 22.542969 Z M 17.078125 19.054688 " clip-rule="nonzero"/></clipPath><clipPath id="59304127d8"><path d="M 9.84375 15.25 L 16.816406 15.25 L 16.816406 22.226562 L 9.84375 22.226562 Z M 9.84375 15.25 " clip-rule="nonzero"/></clipPath><clipPath id="3cce0f8ec4"><path d="M 13.332031 15.25 L 16.816406 18.738281 L 13.332031 22.226562 L 9.84375 18.738281 Z M 13.332031 15.25 " clip-rule="nonzero"/></clipPath><clipPath id="b79d2a4860"><path d="M 17.34375 15.25 L 24.316406 15.25 L 24.316406 22.226562 L 17.34375 22.226562 Z M 17.34375 15.25 " clip-rule="nonzero"/></clipPath><clipPath id="c440678765"><path d="M 20.828125 15.25 L 24.316406 18.738281 L 20.828125 22.226562 L 17.34375 18.738281 Z M 20.828125 15.25 " clip-rule="nonzero"/></clipPath><clipPath id="c71688e8b9"><path d="M 14.910156 13.082031 L 19.25 13.082031 L 19.25 17.417969 L 14.910156 17.417969 Z M 14.910156 13.082031 " clip-rule="nonzero"/></clipPath><clipPath id="5a9f00aa7a"><path d="M 17.078125 13.082031 L 19.25 15.25 L 17.078125 17.417969 L 14.910156 15.25 Z M 17.078125 13.082031 " clip-rule="nonzero"/></clipPath><clipPath id="450eaa525e"><path d="M 20 26 L 28 26 L 28 36 L 20 36 Z M 20 26 " clip-rule="nonzero"/></clipPath><clipPath id="4359717f2d"><path d="M 23.976562 37.183594 L 19.871094 27.597656 L 23.027344 26.246094 L 27.132812 35.835938 Z M 23.976562 37.183594 " clip-rule="nonzero"/></clipPath><clipPath id="6b208dcacd"><path d="M 23.402344 35.84375 L 20.445312 28.9375 L 23.027344 26.246094 L 27.132812 35.835938 Z M 23.402344 35.84375 " clip-rule="nonzero"/></clipPath><clipPath id="31feade584"><path d="M 6.371094 11.703125 L 13.46875 11.703125 L 13.46875 18.796875 L 6.371094 18.796875 Z M 6.371094 11.703125 " clip-rule="nonzero"/></clipPath><clipPath id="e5fac83504"><path d="M 9.921875 11.703125 L 13.46875 15.25 L 9.921875 18.796875 L 6.371094 15.25 Z M 9.921875 11.703125 " clip-rule="nonzero"/></clipPath><clipPath id="5f4335d74d"><path d="M 6.371094 11.703125 L 13.457031 11.703125 L 13.457031 18.789062 L 6.371094 18.789062 Z M 6.371094 11.703125 " clip-rule="nonzero"/></clipPath><clipPath id="4f41486f62"><path d="M 9.917969 11.703125 L 13.464844 15.25 L 9.917969 18.796875 L 6.371094 15.25 Z M 9.917969 11.703125 " clip-rule="nonzero"/></clipPath><clipPath id="4a47bd6e84"><path d="M 9.84375 8.277344 L 16.816406 8.277344 L 16.816406 15.25 L 9.84375 15.25 Z M 9.84375 8.277344 " clip-rule="nonzero"/></clipPath><clipPath id="11418c6f43"><path d="M 13.332031 8.277344 L 16.816406 11.761719 L 13.332031 15.25 L 9.84375 11.761719 Z M 13.332031 8.277344 " clip-rule="nonzero"/></clipPath><clipPath id="bf89844f6d"><path d="M 17.34375 8.277344 L 24.316406 8.277344 L 24.316406 15.25 L 17.34375 15.25 Z M 17.34375 8.277344 " clip-rule="nonzero"/></clipPath><clipPath id="606194750a"><path d="M 20.828125 8.277344 L 24.316406 11.761719 L 20.828125 15.25 L 17.34375 11.761719 Z M 20.828125 8.277344 " clip-rule="nonzero"/></clipPath><clipPath id="b89e86d609"><path d="M 13.59375 4.472656 L 20.566406 4.472656 L 20.566406 11.449219 L 13.59375 11.449219 Z M 13.59375 4.472656 " clip-rule="nonzero"/></clipPath><clipPath id="aaf7cd2fc5"><path d="M 17.078125 4.472656 L 20.566406 7.960938 L 17.078125 11.449219 L 13.59375 7.960938 Z M 17.078125 4.472656 " clip-rule="nonzero"/></clipPath><clipPath id="268d59b724"><path d="M 8.398438 0.0273438 L 25.691406 0.0273438 L 25.691406 3.164062 L 8.398438 3.164062 Z M 8.398438 0.0273438 " clip-rule="nonzero"/></clipPath><clipPath id="5ba8392ab3"><path d="M 0.0429688 0 L 6.371094 0 L 6.371094 3.136719 L 0.0429688 3.136719 Z M 0.0429688 0 " clip-rule="nonzero"/></clipPath><clipPath id="e6707e4671"><path d="M 0.0703125 0 L 3.207031 0 L 3.207031 16.183594 L 0.0703125 16.183594 Z M 0.0703125 0 " clip-rule="nonzero"/></clipPath><clipPath id="1fe318ff5a"><path d="M 0.0429688 13 L 11 13 L 11 25 L 0.0429688 25 Z M 0.0429688 13 " clip-rule="nonzero"/></clipPath><clipPath id="1e2c62432b"><path d="M 8.320312 24.476562 L 0.0429688 16.199219 L 2.261719 13.980469 L 10.539062 22.257812 Z M 8.320312 24.476562 " clip-rule="nonzero"/></clipPath><clipPath id="a6398cd173"><path d="M 27.804688 0.0742188 L 34.132812 0.0742188 L 34.132812 3.214844 L 27.804688 3.214844 Z M 27.804688 0.0742188 " clip-rule="nonzero"/></clipPath><clipPath id="c89e41601a"><path d="M 30.8125 0.0273438 L 33.949219 0.0273438 L 33.949219 16.210938 L 30.8125 16.210938 Z M 30.8125 0.0273438 " clip-rule="nonzero"/></clipPath><clipPath id="176980a538"><path d="M 4.980469 4.472656 L 11.957031 4.472656 L 11.957031 11.449219 L 4.980469 11.449219 Z M 4.980469 4.472656 " clip-rule="nonzero"/></clipPath><clipPath id="79604f91ab"><path d="M 8.46875 4.472656 L 11.957031 7.960938 L 8.46875 11.449219 L 4.980469 7.960938 Z M 8.46875 4.472656 " clip-rule="nonzero"/></clipPath><clipPath id="f1722d6d72"><path d="M 22.203125 4.472656 L 29.179688 4.472656 L 29.179688 11.449219 L 22.203125 11.449219 Z M 22.203125 4.472656 " clip-rule="nonzero"/></clipPath><clipPath id="28556cf3d4"><path d="M 25.691406 4.472656 L 29.179688 7.960938 L 25.691406 11.449219 L 22.203125 7.960938 Z M 25.691406 4.472656 " clip-rule="nonzero"/></clipPath><clipPath id="541228567c"><path d="M 23 13 L 34 13 L 34 25 L 23 25 Z M 23 13 " clip-rule="nonzero"/></clipPath><clipPath id="c64fe47f76"><path d="M 23.453125 22.257812 L 31.734375 13.980469 L 33.949219 16.199219 L 25.671875 24.476562 Z M 23.453125 22.257812 " clip-rule="nonzero"/></clipPath><clipPath id="26af044c65"><path d="M 20.710938 11.703125 L 27.804688 11.703125 L 27.804688 18.796875 L 20.710938 18.796875 Z M 20.710938 11.703125 " clip-rule="nonzero"/></clipPath><clipPath id="b4cbe06e03"><path d="M 24.257812 11.703125 L 27.804688 15.25 L 24.257812 18.796875 L 20.710938 15.25 Z M 24.257812 11.703125 " clip-rule="nonzero"/></clipPath><clipPath id="3dfc4ea9b6"><path d="M 20.710938 11.703125 L 27.792969 11.703125 L 27.792969 18.789062 L 20.710938 18.789062 Z M 20.710938 11.703125 " clip-rule="nonzero"/></clipPath><clipPath id="fedde5718c"><path d="M 24.257812 11.703125 L 27.804688 15.25 L 24.257812 18.796875 L 20.710938 15.25 Z M 24.257812 11.703125 " clip-rule="nonzero"/></clipPath></defs><g clip-path="url(#17bae3adbd)"><path fill="#ffffff" d="M 0.0429688 0 L 34.472656 0 L 34.472656 41.023438 L 0.0429688 41.023438 Z M 0.0429688 0 " fill-opacity="1" fill-rule="nonzero"/></g><g clip-path="url(#5fd0b1d766)"><path fill="#eceeee" d="M 7.027344 36.320312 L 27.136719 36.320312 L 27.136719 40.558594 L 7.027344 40.558594 Z M 7.027344 36.320312 " fill-opacity="1" fill-rule="nonzero"/></g><g clip-path="url(#3abb8f3112)"><g clip-path="url(#f1b868834e)"><path fill="#eceeee" d="M 13.628906 32.023438 L 20.523438 32.023438 L 20.523438 35.589844 L 13.628906 35.589844 Z M 13.628906 32.023438 " fill-opacity="1" fill-rule="nonzero"/></g></g><g clip-path="url(#23f483b419)"><g clip-path="url(#be27e1a3ab)"><g clip-path="url(#5e4254e9a4)"><path fill="#eceeee" d="M 14.203125 27.5625 L 10.171875 37.195312 L 7.027344 35.878906 L 11.058594 26.246094 Z M 14.203125 27.5625 " fill-opacity="1" fill-rule="nonzero"/></g></g></g><g clip-path="url(#792027671b)"><g clip-path="url(#1c6fe236e9)"><path fill="#eceeee" d="M 20.210938 30.960938 L 13.953125 30.960938 L 13.953125 26.582031 L 20.210938 26.582031 Z M 20.210938 30.960938 " fill-opacity="1" fill-rule="nonzero"/></g></g><g clip-path="url(#49d1d7a64c)"><g clip-path="url(#5e19657b42)"><path fill="#eceeee" d="M 13.59375 19.054688 L 20.566406 19.054688 L 20.566406 26.03125 L 13.59375 26.03125 Z M 13.59375 19.054688 " fill-opacity="1" fill-rule="nonzero"/></g></g><g clip-path="url(#59304127d8)"><g clip-path="url(#3cce0f8ec4)"><path fill="#eceeee" d="M 9.84375 15.25 L 16.816406 15.25 L 16.816406 22.226562 L 9.84375 22.226562 Z M 9.84375 15.25 " fill-opacity="1" fill-rule="nonzero"/></g></g><g clip-path="url(#b79d2a4860)"><g clip-path="url(#c440678765)"><path fill="#eceeee" d="M 17.34375 15.25 L 24.316406 15.25 L 24.316406 22.226562 L 17.34375 22.226562 Z M 17.34375 15.25 " fill-opacity="1" fill-rule="nonzero"/></g></g><g clip-path="url(#c71688e8b9)"><g clip-path="url(#5a9f00aa7a)"><path fill="#eceeee" d="M 14.910156 13.082031 L 19.25 13.082031 L 19.25 17.417969 L 14.910156 17.417969 Z M 14.910156 13.082031 " fill-opacity="1" fill-rule="nonzero"/></g></g><g clip-path="url(#450eaa525e)"><g clip-path="url(#4359717f2d)"><g clip-path="url(#6b208dcacd)"><path fill="#eceeee" d="M 23.976562 37.183594 L 19.871094 27.597656 L 23.027344 26.246094 L 27.132812 35.835938 Z M 23.976562 37.183594 " fill-opacity="1" fill-rule="nonzero"/></g></g></g><g clip-path="url(#31feade584)"><g clip-path="url(#e5fac83504)"><path fill="#eceeee" d="M 6.371094 11.703125 L 13.46875 11.703125 L 13.46875 18.796875 L 6.371094 18.796875 Z M 6.371094 11.703125 " fill-opacity="1" fill-rule="nonzero"/></g></g><g clip-path="url(#5f4335d74d)"><g clip-path="url(#4f41486f62)"><path stroke-linecap="butt" transform="matrix(0.108999, 0, 0, 0.108999, 6.372601, 11.703685)" fill="none" stroke-linejoin="miter" d="M 32.526739 -0.00513489 L 65.067303 32.535429 L 32.526739 65.075993 L -0.0138253 32.535429 Z M 32.526739 -0.00513489 " stroke="#eceeee" stroke-width="53.766438" stroke-opacity="1" stroke-miterlimit="4"/></g></g><g clip-path="url(#4a47bd6e84)"><g clip-path="url(#11418c6f43)"><path fill="#eceeee" d="M 9.84375 8.277344 L 16.816406 8.277344 L 16.816406 15.25 L 9.84375 15.25 Z M 9.84375 8.277344 " fill-opacity="1" fill-rule="nonzero"/></g></g><g clip-path="url(#bf89844f6d)"><g clip-path="url(#606194750a)"><path fill="#eceeee" d="M 17.34375 8.277344 L 24.316406 8.277344 L 24.316406 15.25 L 17.34375 15.25 Z M 17.34375 8.277344 " fill-opacity="1" fill-rule="nonzero"/></g></g><g clip-path="url(#b89e86d609)"><g clip-path="url(#aaf7cd2fc5)"><path fill="#eceeee" d="M 13.59375 4.472656 L 20.566406 4.472656 L 20.566406 11.449219 L 13.59375 11.449219 Z M 13.59375 4.472656 " fill-opacity="1" fill-rule="nonzero"/></g></g><g clip-path="url(#268d59b724)"><path fill="#eceeee" d="M 8.398438 0.0273438 L 25.695312 0.0273438 L 25.695312 3.164062 L 8.398438 3.164062 Z M 8.398438 0.0273438 " fill-opacity="1" fill-rule="nonzero"/></g><g clip-path="url(#5ba8392ab3)"><path fill="#eceeee" d="M 0.0429688 0 L 6.367188 0 L 6.367188 3.136719 L 0.0429688 3.136719 Z M 0.0429688 0 " fill-opacity="1" fill-rule="nonzero"/></g><g clip-path="url(#e6707e4671)"><path fill="#eceeee" d="M 3.207031 0 L 3.207031 16.191406 L 0.0703125 16.191406 L 0.0703125 0 Z M 3.207031 0 " fill-opacity="1" fill-rule="nonzero"/></g><g clip-path="url(#1fe318ff5a)"><g clip-path="url(#1e2c62432b)"><path fill="#eceeee" d="M 8.320312 24.476562 L 0.0429688 16.199219 L 2.261719 13.980469 L 10.539062 22.257812 Z M 8.320312 24.476562 " fill-opacity="1" fill-rule="nonzero"/></g></g><g clip-path="url(#a6398cd173)"><path fill="#eceeee" d="M 27.804688 0.0742188 L 34.128906 0.0742188 L 34.128906 3.214844 L 27.804688 3.214844 Z M 27.804688 0.0742188 " fill-opacity="1" fill-rule="nonzero"/></g><g clip-path="url(#c89e41601a)"><path fill="#eceeee" d="M 33.949219 0.0273438 L 33.949219 16.21875 L 30.8125 16.21875 L 30.8125 0.0273438 Z M 33.949219 0.0273438 " fill-opacity="1" fill-rule="nonzero"/></g><g clip-path="url(#176980a538)"><g clip-path="url(#79604f91ab)"><path fill="#eceeee" d="M 4.980469 4.472656 L 11.957031 4.472656 L 11.957031 11.449219 L 4.980469 11.449219 Z M 4.980469 4.472656 " fill-opacity="1" fill-rule="nonzero"/></g></g><g clip-path="url(#f1722d6d72)"><g clip-path="url(#28556cf3d4)"><path fill="#eceeee" d="M 22.203125 4.472656 L 29.179688 4.472656 L 29.179688 11.449219 L 22.203125 11.449219 Z M 22.203125 4.472656 " fill-opacity="1" fill-rule="nonzero"/></g></g><g clip-path="url(#541228567c)"><g clip-path="url(#c64fe47f76)"><path fill="#eceeee" d="M 23.453125 22.257812 L 31.730469 13.980469 L 33.949219 16.199219 L 25.671875 24.476562 Z M 23.453125 22.257812 " fill-opacity="1" fill-rule="nonzero"/></g></g><g clip-path="url(#26af044c65)"><g clip-path="url(#b4cbe06e03)"><path fill="#eceeee" d="M 20.710938 11.703125 L 27.804688 11.703125 L 27.804688 18.796875 L 20.710938 18.796875 Z M 20.710938 11.703125 " fill-opacity="1" fill-rule="nonzero"/></g></g><g clip-path="url(#3dfc4ea9b6)"><g clip-path="url(#fedde5718c)"><path stroke-linecap="butt" transform="matrix(0.108999, 0, 0, 0.108999, 20.709452, 11.703685)" fill="none" stroke-linejoin="miter" d="M 32.554195 -0.00513489 L 65.094759 32.535429 L 32.554195 65.075993 L 0.013631 32.535429 Z M 32.554195 -0.00513489 " stroke="#eceeee" stroke-width="53.766438" stroke-opacity="1" stroke-miterlimit="4"/></g></g></svg>